<svg width="500" height="500" viewBox="0 0 500 500" fill="none" xmlns="http://www.w3.org/2000/svg">
<rect width="500" height="500" fill="white"/>
<path d="M444.566 335.747C436.762 329.678 430.271 324.756 428.664 326.643C427.09 328.448 431.134 337.058 439.07 344.317C446.969 351.645 455.65 353.662 457.088 350.595C458.563 347.496 452.336 341.826 444.566 335.747Z" fill="#011576"/>
<path d="M420.561 339.471C413.477 331.349 407.666 326.442 406.439 329.686C405.25 332.877 409.536 343.255 417.108 351.829C424.66 360.467 432.254 363.458 432.955 359.754C433.688 356.042 427.626 347.608 420.561 339.471Z" fill="#011576"/>
<path d="M396.73 339.882C390.026 331.256 384.479 327.773 383.536 332.791C384.33 342.462 388.319 351.491 394.761 358.201C402.214 367.008 409.032 369.28 409.196 364.129C407.116 354.973 402.81 346.597 396.73 339.882Z" fill="#011576"/>
<path d="M372.392 340.081C365.753 331.875 360.161 330.5 359.464 337.375C360.202 347.92 364.507 357.791 371.545 365.074C379.094 373.387 385.419 374.025 385.19 367.07C383.326 356.947 378.892 347.596 372.392 340.081Z" fill="#011576"/>
<path d="M347.075 341.083C340.25 333.823 334.417 334.773 333.917 343.423C334.228 349.006 335.55 354.466 337.805 359.49C340.061 364.514 343.205 369.003 347.059 372.698C354.882 380.148 360.962 378.687 360.454 369.891C358.902 358.989 354.218 348.903 347.075 341.083Z" fill="#011576"/>
<path d="M320.443 342.85C313.239 336.745 307.001 339.963 306.644 350.192C306.859 356.081 308.251 361.849 310.721 367.093C313.191 372.337 316.681 376.931 320.947 380.556C329.191 387.022 335.274 383.346 334.6 372.783C333.45 361.238 328.405 350.571 320.443 342.85Z" fill="#011576"/>
<path d="M293.065 347.397C285.658 341.242 278.985 344.373 278.208 354.46C278.236 360.348 279.488 366.153 281.871 371.438C284.254 376.723 287.706 381.351 291.967 384.973C300.353 391.727 307.002 388.32 306.789 377.669C306.45 371.886 305.063 366.233 302.707 361.037C300.352 355.841 297.074 351.205 293.065 347.397Z" fill="#011576"/>
<path d="M264.097 352.888C256.614 346.025 249.604 347.705 248.292 356.52C248.174 362.162 249.242 367.759 251.416 372.882C253.59 378.005 256.811 382.518 260.834 386.074C269.152 393.671 276.443 392.067 276.888 382.526C276.707 376.9 275.481 371.373 273.282 366.278C271.083 361.184 267.959 356.628 264.097 352.888Z" fill="#011576"/>
<path d="M233.257 356.736C225.818 349.178 218.567 349.296 216.767 356.748C216.485 362.071 217.346 367.392 219.283 372.289C221.219 377.186 224.177 381.523 227.922 384.956C236.024 393.262 243.8 393.547 244.903 385.361C244.895 379.969 243.855 374.639 241.85 369.71C239.845 364.782 236.918 360.363 233.257 356.736Z" fill="#011576"/>
<path d="M200.959 358.56C193.856 350.07 186.507 348.31 184.131 354.195C183.556 359.109 184.076 364.101 185.649 368.749C187.222 373.396 189.801 377.562 193.167 380.892C200.721 390.007 208.817 392.525 210.708 386.022C210.992 380.95 210.268 375.871 208.586 371.131C206.903 366.392 204.302 362.104 200.959 358.56Z" fill="#011576"/>
<path d="M166.867 357.358C160.191 348.462 153.012 345.392 150.375 349.962C147.769 354.544 150.871 365.335 157.808 374.662C164.745 383.99 172.699 387.975 175.051 382.944C177.414 377.941 173.53 366.216 166.867 357.358Z" fill="#011576"/>
<path d="M131.901 353.533C125.832 344.454 119.018 340.282 116.283 343.708C113.571 347.148 116.004 357.032 122.157 366.349C128.296 375.645 135.833 380.732 138.465 377.056C141.097 373.38 137.957 362.6 131.901 353.533Z" fill="#011576"/>
<path d="M96.8117 347.617C91.4603 338.497 85.21 333.451 82.5135 335.908C79.8378 338.391 81.7207 347.524 87.0265 356.696C92.3324 365.867 99.1445 371.636 101.854 369.09C104.563 366.544 102.147 356.696 96.8117 347.617Z" fill="#011576"/>
<path d="M62.3876 340.257C57.7844 331.153 52.1734 325.301 49.6473 326.984C47.1212 328.668 48.6097 337.275 53.1287 346.378C57.6298 355.482 63.5788 361.7 66.1822 360.02C68.7856 358.34 66.9839 349.356 62.3876 340.257Z" fill="#011576"/>
<path d="M31.419 350.969C33.7355 349.957 32.7755 341.425 29.2747 331.911C25.7738 322.396 21.0579 315.504 18.7414 316.516C16.4248 317.527 17.3849 326.06 20.8857 335.574C24.3865 345.088 29.1024 351.981 31.419 350.969Z" fill="#011576"/>
<path d="M418.884 289.3C414.737 280.842 411.082 274.34 409.402 275.787C407.767 277.191 409.025 286.398 413.513 295.462C417.972 304.569 423.671 309.435 424.978 307.399C426.309 305.333 423.002 297.794 418.884 289.3Z" fill="#011576"/>
<path d="M400.31 286.439C396.287 277.279 392.4 271.728 390.62 274.73C389.434 282.707 391.036 290.878 395.109 297.631C399.76 307.051 405.232 311.457 406.337 308.221C406.056 300.521 403.982 293.025 400.31 286.439Z" fill="#011576"/>
<path d="M380.022 283.396C375.833 274.364 371.446 270.521 369.574 275.258C368.337 284.112 370.22 293.148 374.845 300.552C379.882 309.652 385.317 312.731 386.313 307.969C386.202 299.323 384.035 290.856 380.022 283.396Z" fill="#011576"/>
<path d="M357.916 281.231C353.314 272.873 348.262 271.153 346.349 277.619C345.717 282.345 345.956 287.161 347.054 291.785C348.151 296.409 350.084 300.748 352.74 304.548C358.303 312.91 363.854 314.197 364.794 307.752C364.903 298.373 362.513 289.161 357.916 281.231Z" fill="#011576"/>
<path d="M333.994 280.196C328.801 272.861 323.008 273.414 321.099 281.492C320.436 286.486 320.786 291.578 322.124 296.409C323.461 301.24 325.754 305.693 328.84 309.455C335.028 316.839 340.822 316.073 341.735 307.995C342.124 298.041 339.394 288.238 333.994 280.196Z" fill="#011576"/>
<path d="M308.326 280.116C302.407 273.987 295.858 276.729 293.986 286.213C293.268 291.427 293.731 296.753 295.336 301.728C296.94 306.702 299.637 311.173 303.192 314.751C310.074 321.068 316.224 318.246 317.145 308.605C317.509 303.455 316.916 298.277 315.4 293.382C313.885 288.487 311.479 283.975 308.326 280.116Z" fill="#011576"/>
<path d="M281.391 283.023C275.182 276.998 268.262 279.772 266.179 289.084C265.365 294.249 265.776 299.554 267.374 304.496C268.973 309.438 271.705 313.853 275.311 317.321C282.389 323.679 289.009 320.991 290.233 311.372C290.744 306.23 290.217 301.029 288.69 296.132C287.163 291.235 284.671 286.761 281.391 283.023Z" fill="#011576"/>
<path d="M252.887 287.348C246.609 280.886 239.635 282.445 237.359 290.623C236.528 295.548 236.875 300.623 238.368 305.359C239.86 310.095 242.448 314.332 245.882 317.661C252.88 324.543 259.848 323.261 261.399 314.686C261.948 309.726 261.468 304.695 259.995 299.963C258.522 295.232 256.093 290.921 252.887 287.348Z" fill="#011576"/>
<path d="M223.014 290.963C216.77 284.053 209.801 284.361 207.356 291.372C206.504 296.015 206.775 300.82 208.141 305.314C209.508 309.809 211.924 313.84 215.151 317.011C221.959 324.331 229.148 324.454 231.007 317.05C231.603 312.325 231.192 307.514 229.806 302.99C228.42 298.466 226.096 294.35 223.014 290.963Z" fill="#011576"/>
<path d="M192.216 293.698C186.261 286.089 179.396 284.823 176.686 290.519C175.699 294.829 175.77 299.345 176.892 303.616C178.014 307.886 180.147 311.759 183.078 314.847C189.432 322.772 196.7 324.636 199.003 318.615C199.746 314.173 199.519 309.602 198.34 305.274C197.161 300.945 195.063 296.979 192.216 293.698Z" fill="#011576"/>
<path d="M160.16 294.708C154.49 286.81 147.846 284.438 145.081 289.052C142.336 293.653 144.685 303.647 150.599 311.765C156.513 319.883 163.603 322.872 166.109 318.027C166.927 313.906 166.813 309.63 165.777 305.567C164.741 301.505 162.813 297.778 160.16 294.708Z" fill="#011576"/>
<path d="M127.455 294.227C122.172 286.122 115.841 282.766 113.1 286.394C110.382 290.002 112.357 299.338 117.757 307.563C123.157 315.787 129.899 319.713 132.508 315.96C135.118 312.207 132.735 302.304 127.455 294.227Z" fill="#011576"/>
<path d="M94.4677 292.377C89.6336 284.116 83.7143 279.842 81.0703 282.588C78.4263 285.334 80.1011 294.133 84.958 302.439C89.7971 310.752 96.0384 315.442 98.6478 312.628C101.257 309.815 99.2969 300.621 94.4677 292.377Z" fill="#011576"/>
<path d="M61.5974 289.316C57.2439 280.866 51.7814 275.713 49.294 277.68C46.8066 279.647 48.2445 288.082 52.5723 296.557C56.9 305.031 62.5279 310.376 65.0381 308.373C67.5483 306.371 65.9489 297.775 61.5974 289.316Z" fill="#011576"/>
<path d="M32.5296 303.201C34.833 301.899 33.3452 293.802 29.2064 285.116C25.0676 276.431 19.8451 270.446 17.5416 271.749C15.2382 273.052 16.726 281.149 20.8648 289.834C25.0036 298.519 30.2261 304.504 32.5296 303.201Z" fill="#011576"/>
<path d="M412.004 236.695C411.23 227.349 409.953 220.144 407.888 221.099C405.858 222.042 404.199 231.205 405.424 241.034C406.613 250.897 409.859 257.243 411.438 255.804C413.055 249.58 413.249 243.019 412.004 236.695Z" fill="#011576"/>
<path d="M396.101 229.45C394.982 219.817 392.726 213.761 390.142 216.445C386.892 223.588 386.186 231.789 388.16 239.466C389.998 249.319 393.701 254.566 395.514 251.7C397.346 244.442 397.547 236.811 396.101 229.45Z" fill="#011576"/>
<path d="M377.527 223.581C375.781 214.243 372.34 209.998 369.33 214.526C366.041 222.52 365.687 231.582 368.339 239.852C371.004 249.185 375.301 252.785 377.371 248.304C379.393 240.218 379.447 231.697 377.527 223.581Z" fill="#011576"/>
<path d="M356.417 219.516C353.803 210.936 349.108 208.916 345.79 215.255C344.154 219.516 343.349 224.1 343.425 228.718C343.501 233.335 344.456 237.886 346.23 242.08C349.834 250.528 354.796 252.167 357.11 245.993C359.331 237.293 359.089 228.065 356.417 219.516Z" fill="#011576"/>
<path d="M332.985 217.264C329.351 209.772 323.408 210.161 319.93 218.148C318.281 222.621 317.618 227.453 317.995 232.256C318.372 237.059 319.778 241.698 322.101 245.801C326.701 253.13 332.373 252.665 334.885 244.862C337.337 235.716 336.662 225.91 332.985 217.264Z" fill="#011576"/>
<path d="M307.491 216.567C302.749 210.372 295.644 213.129 292.13 222.541C290.446 227.167 289.936 232.202 290.654 237.116C291.371 242.031 293.289 246.644 296.206 250.473C301.82 256.603 308.213 254.024 310.884 244.699C312.248 240.026 312.651 235.083 312.064 230.221C311.478 225.359 309.916 220.697 307.491 216.567Z" fill="#011576"/>
<path d="M280.147 219.453C274.975 213.515 267.553 216.448 264.035 225.73C262.357 230.304 261.899 235.302 262.714 240.147C263.528 244.993 265.583 249.489 268.64 253.119C274.559 259.112 281.348 256.514 284.136 247.2C285.553 242.564 285.931 237.626 285.237 232.798C284.543 227.971 282.798 223.395 280.147 219.453Z" fill="#011576"/>
<path d="M251.096 224.386C250.027 222.964 248.617 221.893 247.023 221.292C245.429 220.692 243.713 220.584 242.066 220.983C240.42 221.381 238.907 222.269 237.696 223.549C236.485 224.828 235.623 226.448 235.207 228.229C233.651 232.613 233.268 237.387 234.104 241.998C234.94 246.609 236.96 250.867 239.928 254.277C240.892 255.777 242.237 256.939 243.797 257.621C245.358 258.302 247.066 258.473 248.715 258.114C250.363 257.754 251.879 256.879 253.079 255.595C254.278 254.311 255.107 252.675 255.466 250.886C256.792 246.417 257.087 241.662 256.325 237.04C255.563 232.418 253.767 228.072 251.096 224.386Z" fill="#011576"/>
<path d="M220.933 229.254C220.084 227.763 218.875 226.554 217.439 225.76C216.002 224.966 214.393 224.618 212.787 224.752C211.181 224.886 209.64 225.499 208.332 226.522C207.024 227.546 205.998 228.941 205.368 230.556C203.94 234.722 203.627 239.244 204.464 243.596C205.301 247.948 207.255 251.952 210.098 255.143C215.901 261.806 222.794 261.569 225.522 254.338C226.757 250.074 226.984 245.539 226.182 241.154C225.379 236.769 223.574 232.676 220.933 229.254Z" fill="#011576"/>
<path d="M190.134 233.848C185.035 226.747 178.288 225.981 175.082 231.835C173.683 235.753 173.322 240.019 174.041 244.149C174.759 248.279 176.528 252.106 179.145 255.195C184.608 262.401 191.407 263.676 194.25 257.72C195.469 253.686 195.731 249.381 195.011 245.207C194.291 241.033 192.614 237.125 190.134 233.848Z" fill="#011576"/>
<path d="M158.404 237.283C153.429 229.942 146.963 228.135 143.928 232.946C142.64 236.625 142.322 240.623 143.009 244.489C143.696 248.355 145.362 251.934 147.818 254.823C153.025 262.231 159.62 264.52 162.413 259.621C163.569 255.837 163.807 251.792 163.104 247.878C162.402 243.964 160.783 240.315 158.404 237.283Z" fill="#011576"/>
<path d="M126.227 239.614C121.442 232.07 115.286 229.266 112.422 233.122C109.558 236.979 111.179 246.058 116.082 253.648C120.986 261.238 127.28 264.439 130.007 260.535C132.733 256.631 130.998 247.156 126.227 239.614Z" fill="#011576"/>
<path d="M93.7972 240.747C89.2753 232.975 83.467 229.217 80.7913 232.188C78.1156 235.16 79.6169 243.789 84.1924 251.592C88.7679 259.395 94.6763 263.421 97.2975 260.415C99.9187 257.409 98.3182 248.513 93.7972 240.747Z" fill="#011576"/>
<path d="M61.3675 240.586C57.1428 232.524 51.725 227.807 49.2296 229.983C46.7521 232.156 48.1395 240.462 52.3672 248.561C56.5948 256.661 62.0612 261.488 64.5486 259.268C67.036 257.048 65.5911 248.651 61.3675 240.586Z" fill="#011576"/>
<path d="M33.0453 256.506C35.3435 255.033 33.6131 247.185 29.1804 238.977C24.7476 230.769 19.2911 225.309 16.9929 226.782C14.6946 228.256 16.425 236.104 20.8578 244.312C25.2905 252.519 30.7471 257.979 33.0453 256.506Z" fill="#011576"/>
<path d="M424.075 184.825C426.666 175.447 427.856 167.314 425.407 166.972C422.99 166.631 418.261 174.829 416.125 184.885C413.953 194.946 414.824 202.553 416.789 202.232C418.783 201.891 421.456 194.236 424.075 184.825Z" fill="#011576"/>
<path d="M410.621 168.988C412.569 158.953 412.029 151.731 408.504 153.499C403.029 159.448 399.786 167.407 399.412 175.821C398.245 186.138 400.204 192.433 402.903 190.427C407.093 184.103 409.748 176.729 410.621 168.988Z" fill="#011576"/>
<path d="M393.176 156.806C394.024 146.852 391.467 141.589 387.031 145.705C381.578 152.894 378.73 162.009 379.024 171.33C379.174 181.169 382.431 185.508 385.833 181.562C390.237 174.157 392.77 165.618 393.176 156.806Z" fill="#011576"/>
<path d="M371.985 148.914C371.405 139.722 366.771 137.153 361.705 143.595C359.045 147.535 357.13 152.012 356.071 156.765C355.012 161.518 354.83 166.453 355.535 171.284C357.159 180.058 361.76 182.036 365.781 176.049C370.319 167.895 372.482 158.434 371.985 148.914Z" fill="#011576"/>
<path d="M347.514 145.282C345.318 137.401 338.757 137.877 333.332 146.401C330.71 150.522 329.003 155.251 328.345 160.215C327.687 165.178 328.096 170.24 329.541 175.002C332.679 182.344 338.567 181.782 343.054 173.834C347.731 165.245 349.32 155.073 347.514 145.282Z" fill="#011576"/>
<path d="M320.332 145.357C316.475 139.119 308.242 142.639 302.754 152.86C300.128 157.041 298.632 161.941 298.436 167.003C298.24 172.065 299.352 177.084 301.645 181.492C306.25 187.258 313.312 184.171 318.096 174.422C320.514 170.099 321.975 165.222 322.364 160.177C322.752 155.132 322.056 150.058 320.332 145.357Z" fill="#011576"/>
<path d="M290.543 150.843C286.048 145.143 277.568 149.161 272.366 159.337C269.844 163.471 268.521 168.334 268.567 173.297C268.613 178.26 270.026 183.093 272.623 187.171C277.716 192.581 285.096 189.188 289.736 179.307C292.101 175.036 293.418 170.175 293.559 165.19C293.7 160.205 292.661 155.264 290.543 150.843Z" fill="#011576"/>
<path d="M258.882 159.617C254.211 153.787 246.216 156.761 241.574 165.8C239.326 169.809 238.244 174.467 238.472 179.159C238.7 183.851 240.227 188.358 242.852 192.086C248 197.764 255.21 195.433 259.375 186.536C261.497 182.406 262.569 177.735 262.483 173.003C262.396 168.272 261.153 163.651 258.882 159.617Z" fill="#011576"/>
<path d="M226.461 168.864C221.684 162.818 214.153 164.577 210.028 172.388C208.056 176.251 207.203 180.673 207.58 185.074C207.958 189.475 209.547 193.649 212.14 197.047C213.167 198.45 214.519 199.527 216.057 200.167C217.595 200.807 219.262 200.986 220.885 200.687C222.508 200.387 224.028 199.62 225.287 198.464C226.545 197.307 227.497 195.805 228.042 194.113C229.914 190.146 230.756 185.698 230.477 181.249C230.198 176.799 228.81 172.517 226.461 168.864Z" fill="#011576"/>
<path d="M193.827 177.869C193.065 176.372 191.951 175.122 190.6 174.248C189.248 173.374 187.708 172.907 186.136 172.896C184.565 172.885 183.019 173.33 181.657 174.185C180.295 175.04 179.167 176.275 178.388 177.762C176.596 181.46 175.844 185.651 176.224 189.812C176.605 193.973 178.101 197.919 180.527 201.16C185.45 207.797 192.17 208.2 195.675 201.78C197.367 197.981 198.088 193.756 197.763 189.548C197.438 185.341 196.078 181.306 193.827 177.869Z" fill="#011576"/>
<path d="M160.736 185.406C156.132 178.462 149.517 177.345 146.105 182.598C144.549 186.124 143.969 190.066 144.433 193.945C144.897 197.824 146.386 201.472 148.719 204.445C153.531 211.38 159.977 212.929 163.177 207.666C164.665 204.064 165.224 200.089 164.794 196.167C164.364 192.244 162.961 188.524 160.736 185.406Z" fill="#011576"/>
<path d="M127.578 191.18C123.047 183.947 116.805 181.636 113.728 185.791C112.384 189.154 111.945 192.864 112.462 196.488C112.978 200.113 114.428 203.503 116.644 206.264C121.296 213.514 127.446 216.157 130.391 211.987C131.696 208.566 132.123 204.824 131.628 201.159C131.133 197.495 129.733 194.046 127.578 191.18Z" fill="#011576"/>
<path d="M94.4862 194.841C90.0921 187.266 84.2233 183.783 81.4396 186.908C78.6558 190.034 80.0522 198.657 84.4988 206.28C88.9455 213.902 94.7587 217.589 97.475 214.407C100.191 211.226 98.8753 202.4 94.4862 194.841Z" fill="#011576"/>
<path d="M61.6217 196.014C57.4327 188.011 51.9634 183.348 49.4323 185.532C46.9013 187.716 48.2818 196.052 52.4826 204.138C56.6835 212.223 62.1093 216.955 64.6244 214.678C67.1396 212.401 65.8087 204.02 61.6217 196.014Z" fill="#011576"/>
<path d="M32.7644 212.09C35.0696 210.709 33.4744 202.728 29.2014 194.265C24.9284 185.801 19.5957 180.06 17.2904 181.442C14.9852 182.823 16.5804 190.804 20.8534 199.267C25.1264 207.731 30.4591 213.472 32.7644 212.09Z" fill="#011576"/>
<path d="M455.122 141.107C461.083 132.721 464.701 123.768 461.826 121.539C458.988 119.316 451.222 125.731 445.796 135.271C440.326 144.823 438.823 153.126 441.13 154.212C443.475 155.278 449.128 149.527 455.122 141.107Z" fill="#011576"/>
<path d="M443.814 114.33C448.704 104.138 449.702 95.284 445.168 95.6328C440.66 95.975 433.129 105.762 429.161 116.453C425.172 127.174 425.543 134.502 429.132 133.682C432.737 132.824 438.901 124.554 443.814 114.33Z" fill="#011576"/>
<path d="M426.662 93.0784C429.887 82.2148 427.941 75.2402 422.014 78.6617C414.378 85.2009 409.154 94.5121 407.295 104.897C405.191 115.586 407.655 120.938 412.443 117.771C419.273 111.21 424.212 102.633 426.662 93.0784Z" fill="#011576"/>
<path d="M404.164 78.681C405.318 68.285 400.428 64.5148 393.503 71.0392C386.129 78.9084 381.712 89.4899 381.115 100.717C381.079 110.387 385.647 113.051 391.459 107.303C398.319 99.4307 402.759 89.4274 404.164 78.681Z" fill="#011576"/>
<path d="M377.137 71.3578C376.034 62.3707 368.469 62.4873 360.975 71.7896C357.452 75.9599 354.795 80.9087 353.185 86.2988C351.576 91.6888 351.052 97.3935 351.649 103.024C353.705 111.023 360.22 110.627 366.778 102.353C373.608 93.7575 377.295 82.7247 377.137 71.3578Z" fill="#011576"/>
<path d="M346.554 70.4076C343.178 63.4567 333.385 67.5357 325.751 79.0448C322.286 83.2066 319.916 88.3097 318.89 93.8163C317.864 99.3228 318.22 105.029 319.921 110.333C323.932 116.356 332.144 112.861 339.165 102.288C342.57 97.9549 345.009 92.8224 346.291 87.2918C347.573 81.7611 347.663 75.9823 346.554 70.4076Z" fill="#011576"/>
<path d="M312.457 77.407C308.239 71.3545 298.233 76.4224 291.144 88.0374C284.051 99.6221 282.797 112.87 287.453 118.268C292.134 123.666 300.621 119.518 307.289 108.56C313.927 97.6301 316.696 83.4553 312.457 77.407Z" fill="#011576"/>
<path d="M276.236 89.5533C271.794 83.6 262.586 87.7395 256.469 98.101C253.57 102.055 251.84 106.874 251.507 111.922C251.174 116.969 252.255 122.008 254.605 126.373C259.398 131.904 267.421 128.714 273.203 118.751C276.076 114.633 277.874 109.746 278.407 104.607C278.941 99.4673 278.191 94.2664 276.236 89.5533Z" fill="#011576"/>
<path d="M239.597 103.154C235.013 97.1476 226.557 100.006 221.324 108.962C218.817 112.769 217.447 117.324 217.399 122.009C217.351 126.694 218.628 131.282 221.056 135.148C225.912 140.908 233.472 138.872 238.433 130.173C240.93 126.24 242.363 121.622 242.569 116.845C242.774 112.068 241.745 107.324 239.597 103.154Z" fill="#011576"/>
<path d="M203.255 116.884C202.254 115.399 200.914 114.224 199.369 113.475C197.823 112.727 196.125 112.431 194.442 112.616C192.76 112.801 191.15 113.462 189.774 114.532C188.397 115.603 187.3 117.046 186.592 118.719C184.388 122.384 183.245 126.686 183.311 131.067C183.378 135.448 184.651 139.707 186.966 143.29C187.864 144.777 189.109 145.978 190.572 146.77C192.036 147.562 193.666 147.917 195.297 147.799C196.927 147.681 198.5 147.094 199.854 146.097C201.208 145.101 202.296 143.731 203.005 142.127C205.189 138.358 206.369 134.001 206.413 129.544C206.457 125.087 205.364 120.704 203.255 116.884Z" fill="#011576"/>
<path d="M167.068 129.049C166.356 127.538 165.297 126.253 163.995 125.317C162.693 124.382 161.192 123.828 159.636 123.71C158.081 123.591 156.523 123.912 155.114 124.64C153.705 125.369 152.493 126.481 151.594 127.869C149.736 131.364 148.884 135.385 149.146 139.413C149.408 143.441 150.772 147.291 153.063 150.466C157.695 157.15 164.314 158.048 168.088 152.175C169.943 148.61 170.832 144.545 170.651 140.451C170.471 136.358 169.228 132.404 167.068 129.049Z" fill="#011576"/>
<path d="M131.443 138.993C126.983 131.968 120.41 130.259 117.009 134.89C115.465 138.228 114.858 141.988 115.263 145.7C115.669 149.411 117.068 152.911 119.288 155.761C123.853 162.768 130.105 164.897 133.394 160.276C134.95 156.891 135.593 153.094 135.248 149.327C134.902 145.559 133.583 141.976 131.443 138.993Z" fill="#011576"/>
<path d="M96.4849 146.083C92.0888 138.704 85.9912 135.659 83.0271 139.076C80.063 142.493 81.386 151.158 85.8276 158.576C90.2693 165.994 96.1579 169.304 99.0635 165.838C101.969 162.371 100.885 153.441 96.4849 146.083Z" fill="#011576"/>
<path d="M62.3425 149.684C58.105 141.837 52.49 137.409 49.8876 139.722C47.2852 142.035 48.6607 150.347 52.9022 158.314C57.1437 166.28 62.6319 170.788 65.2283 168.354C67.8248 165.921 66.5781 157.528 62.3425 149.684Z" fill="#011576"/>
<path d="M32.8018 166.882C35.1221 165.492 33.5385 157.5 29.2647 149.031C24.9909 140.562 19.6452 134.824 17.3249 136.213C15.0045 137.603 16.5882 145.595 20.862 154.064C25.1358 162.533 30.4815 168.272 32.8018 166.882Z" fill="#011576"/>
</svg>
