<svg width="3163" height="690" viewBox="0 0 3163 690" fill="none" xmlns="http://www.w3.org/2000/svg">
<path d="M729.989 463.147C718.26 454.776 708.505 447.986 706.091 450.589C703.724 453.078 709.802 464.956 721.729 474.97C733.6 485.078 746.647 487.86 748.808 483.629C751.024 479.354 741.667 471.532 729.989 463.147Z" fill="#011576"/>
<path d="M693.914 468.284C683.268 457.081 674.535 450.312 672.691 454.786C670.904 459.189 677.345 473.504 688.725 485.333C700.074 497.247 711.487 501.374 712.54 496.264C713.642 491.144 704.532 479.509 693.914 468.284Z" fill="#011576"/>
<path d="M658.1 468.852C648.024 456.952 639.687 452.147 638.271 459.07C639.464 472.411 645.458 484.866 655.141 494.121C666.34 506.27 676.587 509.405 676.834 502.299C673.708 489.669 667.236 478.115 658.1 468.852Z" fill="#011576"/>
<path d="M621.523 469.126C611.545 457.807 603.142 455.909 602.093 465.393C603.203 479.939 609.673 493.555 620.25 503.602C631.596 515.07 641.101 515.951 640.757 506.356C637.955 492.391 631.291 479.492 621.523 469.126Z" fill="#011576"/>
<path d="M583.473 470.508C573.216 460.493 564.452 461.804 563.699 473.737C564.168 481.437 566.153 488.97 569.543 495.9C572.932 502.831 577.659 509.023 583.45 514.12C595.206 524.397 604.344 522.381 603.581 510.248C601.249 495.208 594.209 481.295 583.473 470.508Z" fill="#011576"/>
<path d="M543.45 472.946C532.623 464.523 523.249 468.963 522.711 483.073C523.036 491.197 525.127 499.153 528.839 506.387C532.552 513.621 537.796 519.959 544.207 524.959C556.597 533.879 565.738 528.808 564.726 514.236C562.998 498.311 555.416 483.595 543.45 472.946Z" fill="#011576"/>
<path d="M502.304 479.217C491.173 470.728 481.145 475.047 479.978 488.961C480.019 497.083 481.9 505.091 485.482 512.381C489.063 519.672 494.25 526.056 500.654 531.052C513.259 540.37 523.251 535.669 522.93 520.977C522.421 512.999 520.336 505.201 516.796 498.033C513.256 490.866 508.331 484.471 502.304 479.217Z" fill="#011576"/>
<path d="M458.77 486.792C447.524 477.326 436.989 479.643 435.018 491.802C434.839 499.586 436.445 507.307 439.712 514.374C442.979 521.44 447.82 527.665 453.865 532.572C466.367 543.051 477.324 540.839 477.992 527.678C477.721 519.917 475.878 512.291 472.574 505.264C469.269 498.236 464.573 491.952 458.77 486.792Z" fill="#011576"/>
<path d="M412.421 492.1C401.242 481.675 390.345 481.837 387.64 492.117C387.216 499.46 388.51 506.8 391.42 513.555C394.331 520.31 398.776 526.293 404.404 531.029C416.581 542.486 428.266 542.879 429.924 531.587C429.912 524.15 428.35 516.797 425.336 509.998C422.322 503.199 417.924 497.103 412.421 492.1Z" fill="#011576"/>
<path d="M363.882 494.617C353.208 482.905 342.163 480.477 338.593 488.596C337.728 495.374 338.511 502.261 340.875 508.672C343.239 515.083 347.115 520.829 352.173 525.423C363.525 537.997 375.693 541.47 378.534 532.5C378.962 525.503 377.874 518.497 375.345 511.959C372.816 505.421 368.906 499.506 363.882 494.617Z" fill="#011576"/>
<path d="M312.648 492.958C302.615 480.687 291.827 476.452 287.863 482.756C283.946 489.077 288.608 503.963 299.034 516.829C309.459 529.696 321.412 535.193 324.948 528.254C328.499 521.352 322.662 505.178 312.648 492.958Z" fill="#011576"/>
<path d="M260.099 487.683C250.979 475.159 240.738 469.403 236.627 474.13C232.551 478.875 236.207 492.51 245.455 505.361C254.681 518.185 266.008 525.202 269.963 520.131C273.919 515.06 269.201 500.19 260.099 487.683Z" fill="#011576"/>
<path d="M207.365 479.521C199.322 466.941 189.929 459.98 185.876 463.369C181.855 466.795 184.685 479.393 192.659 492.045C200.633 504.697 210.871 512.654 214.942 509.143C219.014 505.631 215.383 492.045 207.365 479.521Z" fill="#011576"/>
<path d="M155.63 469.368C148.712 456.81 140.279 448.738 136.483 451.06C132.686 453.382 134.923 465.255 141.715 477.813C148.479 490.371 157.42 498.948 161.332 496.631C165.245 494.313 162.537 481.92 155.63 469.368Z" fill="#011576"/>
<path d="M109.088 484.146C112.57 482.75 111.127 470.979 105.866 457.855C100.604 444.731 93.5171 435.223 90.0357 436.619C86.5542 438.015 87.997 449.785 93.2582 462.909C98.5195 476.034 105.607 485.541 109.088 484.146Z" fill="#011576"/>
<path d="M691.392 399.076C685.16 387.409 679.667 378.44 677.142 380.436C674.685 382.372 676.576 395.073 683.32 407.576C690.022 420.138 698.587 426.851 700.55 424.043C702.552 421.193 697.582 410.793 691.392 399.076Z" fill="#011576"/>
<path d="M663.479 395.129C657.433 382.494 651.591 374.835 648.916 378.977C647.134 389.981 649.542 401.252 655.663 410.568C662.653 423.562 670.875 429.64 672.537 425.177C672.115 414.555 668.998 404.215 663.479 395.129Z" fill="#011576"/>
<path d="M632.988 390.931C626.692 378.472 620.099 373.17 617.286 379.706C615.428 391.919 618.258 404.384 625.208 414.598C632.778 427.15 640.945 431.398 642.442 424.828C642.277 412.901 639.019 401.222 632.988 390.931Z" fill="#011576"/>
<path d="M599.767 387.945C592.85 376.416 585.259 374.043 582.383 382.963C581.433 389.482 581.794 396.126 583.443 402.504C585.092 408.883 587.997 414.868 591.988 420.11C600.349 431.645 608.691 433.42 610.104 424.529C610.267 411.591 606.677 398.884 599.767 387.945Z" fill="#011576"/>
<path d="M563.814 386.518C556.01 376.399 547.305 377.162 544.435 388.305C543.44 395.194 543.965 402.218 545.975 408.882C547.985 415.546 551.431 421.689 556.069 426.879C565.369 437.065 574.076 436.009 575.449 424.865C576.032 411.133 571.93 397.611 563.814 386.518Z" fill="#011576"/>
<path d="M525.24 386.408C516.344 377.953 506.503 381.736 503.69 394.818C502.61 402.011 503.306 409.358 505.718 416.22C508.129 423.081 512.182 429.249 517.524 434.184C527.867 442.899 537.109 439.005 538.494 425.707C539.041 418.602 538.149 411.459 535.872 404.707C533.594 397.954 529.979 391.731 525.24 386.408Z" fill="#011576"/>
<path d="M484.76 390.417C475.429 382.106 465.029 385.933 461.899 398.778C460.675 405.902 461.293 413.221 463.695 420.038C466.097 426.856 470.203 432.946 475.623 437.729C486.26 446.5 496.208 442.793 498.048 429.523C498.816 422.43 498.025 415.255 495.729 408.5C493.434 401.745 489.69 395.573 484.76 390.417Z" fill="#011576"/>
<path d="M441.924 396.383C432.489 387.47 422.007 389.62 418.587 400.9C417.337 407.694 417.859 414.695 420.102 421.228C422.346 427.761 426.235 433.606 431.395 438.198C441.913 447.692 452.385 445.923 454.715 434.095C455.54 427.252 454.819 420.312 452.605 413.785C450.391 407.259 446.741 401.312 441.924 396.383Z" fill="#011576"/>
<path d="M397.027 401.37C387.645 391.838 377.17 392.262 373.496 401.934C372.216 408.339 372.623 414.967 374.676 421.167C376.73 427.367 380.36 432.927 385.211 437.301C395.443 447.399 406.246 447.569 409.04 437.357C409.936 430.838 409.319 424.202 407.235 417.961C405.152 411.72 401.659 406.043 397.027 401.37Z" fill="#011576"/>
<path d="M350.743 405.142C341.794 394.647 331.477 392.9 327.404 400.758C325.92 406.702 326.027 412.933 327.713 418.824C329.399 424.714 332.606 430.057 337.01 434.317C346.56 445.249 357.482 447.821 360.944 439.515C362.061 433.387 361.719 427.082 359.947 421.111C358.175 415.139 355.022 409.669 350.743 405.142Z" fill="#011576"/>
<path d="M302.568 406.536C294.046 395.642 284.061 392.37 279.906 398.734C275.78 405.081 279.31 418.867 288.198 430.065C297.087 441.263 307.742 445.387 311.508 438.703C312.738 433.018 312.566 427.12 311.009 421.516C309.451 415.912 306.554 410.771 302.568 406.536Z" fill="#011576"/>
<path d="M253.416 405.872C245.477 394.691 235.961 390.062 231.842 395.067C227.758 400.044 230.726 412.922 238.842 424.268C246.957 435.614 257.089 441.029 261.011 435.852C264.932 430.675 261.352 417.014 253.416 405.872Z" fill="#011576"/>
<path d="M203.841 403.321C196.576 391.924 187.68 386.03 183.706 389.817C179.733 393.604 182.25 405.742 189.549 417.2C196.821 428.668 206.201 435.138 210.123 431.256C214.044 427.375 211.098 414.692 203.841 403.321Z" fill="#011576"/>
<path d="M154.442 399.098C147.9 387.441 139.69 380.333 135.952 383.046C132.214 385.76 134.375 397.396 140.879 409.086C147.383 420.776 155.841 428.149 159.613 425.387C163.386 422.624 160.982 410.767 154.442 399.098Z" fill="#011576"/>
<path d="M110.757 418.252C114.219 416.455 111.983 405.286 105.763 393.305C99.5426 381.323 91.694 373.068 88.2322 374.865C84.7704 376.662 87.0064 387.832 93.2265 399.813C99.4465 411.794 107.295 420.05 110.757 418.252Z" fill="#011576"/>
<path d="M681.054 326.51C679.89 313.618 677.971 303.678 674.868 304.996C671.817 306.296 669.324 318.936 671.164 332.495C672.952 346.1 677.829 354.855 680.203 352.869C682.632 344.284 682.924 335.234 681.054 326.51Z" fill="#011576"/>
<path d="M657.154 316.516C655.473 303.228 652.081 294.873 648.199 298.575C643.314 308.429 642.253 319.743 645.22 330.333C647.983 343.924 653.547 351.163 656.272 347.208C659.025 337.197 659.328 326.669 657.154 316.516Z" fill="#011576"/>
<path d="M629.24 308.42C626.617 295.539 621.444 289.683 616.921 295.929C611.979 306.956 611.446 319.457 615.432 330.865C619.437 343.74 625.894 348.705 629.006 342.525C632.045 331.37 632.125 319.616 629.24 308.42Z" fill="#011576"/>
<path d="M597.515 302.813C593.586 290.977 586.53 288.19 581.543 296.934C579.086 302.812 577.875 309.136 577.989 315.506C578.103 321.876 579.538 328.152 582.205 333.938C587.621 345.592 595.078 347.853 598.556 339.336C601.893 327.334 601.53 314.605 597.515 302.813Z" fill="#011576"/>
<path d="M562.299 299.706C556.838 289.371 547.906 289.907 542.679 300.926C540.2 307.096 539.205 313.761 539.771 320.386C540.338 327.011 542.452 333.411 545.942 339.071C552.856 349.182 561.379 348.54 565.155 337.776C568.839 325.159 567.825 311.633 562.299 299.706Z" fill="#011576"/>
<path d="M523.985 298.744C516.858 290.198 506.181 294.002 500.9 306.986C498.369 313.367 497.603 320.312 498.681 327.091C499.759 333.87 502.641 340.235 507.026 345.517C515.463 353.972 525.07 350.415 529.084 337.552C531.134 331.105 531.739 324.286 530.858 317.58C529.977 310.873 527.63 304.442 523.985 298.744Z" fill="#011576"/>
<path d="M482.892 302.725C475.12 294.533 463.964 298.58 458.677 311.384C456.156 317.694 455.468 324.588 456.692 331.272C457.917 337.956 461.004 344.159 465.598 349.165C474.494 357.433 484.696 353.849 488.887 341.001C491.017 334.606 491.584 327.794 490.541 321.134C489.498 314.475 486.875 308.163 482.892 302.725Z" fill="#011576"/>
<path d="M439.232 309.53C437.626 307.569 435.507 306.092 433.111 305.263C430.716 304.434 428.137 304.286 425.662 304.836C423.187 305.385 420.914 306.611 419.094 308.375C417.274 310.14 415.979 312.375 415.354 314.832C413.015 320.879 412.44 327.465 413.696 333.826C414.952 340.186 417.987 346.06 422.449 350.764C423.898 352.833 425.918 354.436 428.263 355.376C430.608 356.316 433.176 356.552 435.653 356.056C438.131 355.56 440.41 354.353 442.212 352.582C444.014 350.811 445.261 348.554 445.8 346.086C447.793 339.922 448.236 333.362 447.091 326.986C445.945 320.61 443.246 314.614 439.232 309.53Z" fill="#011576"/>
<path d="M393.901 316.245C392.625 314.188 390.809 312.521 388.65 311.426C386.491 310.331 384.073 309.85 381.66 310.035C379.246 310.22 376.93 311.065 374.964 312.477C372.998 313.889 371.457 315.813 370.51 318.041C368.364 323.788 367.893 330.025 369.151 336.029C370.409 342.033 373.346 347.557 377.618 351.958C386.339 361.149 396.698 360.822 400.799 350.847C402.654 344.965 402.995 338.71 401.789 332.661C400.584 326.612 397.871 320.966 393.901 316.245Z" fill="#011576"/>
<path d="M347.614 322.582C339.952 312.787 329.811 311.731 324.993 319.806C322.891 325.21 322.348 331.096 323.428 336.793C324.508 342.49 327.166 347.769 331.099 352.029C339.31 361.971 349.527 363.73 353.799 355.513C355.632 349.948 356.025 344.01 354.944 338.252C353.862 332.494 351.341 327.103 347.614 322.582Z" fill="#011576"/>
<path d="M299.929 327.321C292.452 317.194 282.734 314.702 278.174 321.339C276.238 326.414 275.759 331.929 276.792 337.262C277.825 342.594 280.329 347.532 284.019 351.517C291.844 361.735 301.756 364.893 305.954 358.136C307.691 352.916 308.048 347.335 306.993 341.936C305.937 336.537 303.503 331.503 299.929 327.321Z" fill="#011576"/>
<path d="M251.571 330.537C244.381 320.129 235.129 316.261 230.825 321.581C226.52 326.901 228.955 339.425 236.325 349.895C243.694 360.365 253.154 364.781 257.251 359.396C261.349 354.01 258.741 340.94 251.571 330.537Z" fill="#011576"/>
<path d="M202.834 332.099C196.038 321.379 187.309 316.194 183.288 320.293C179.267 324.392 181.523 336.296 188.399 347.059C195.276 357.823 204.155 363.377 208.094 359.23C212.034 355.084 209.628 342.812 202.834 332.099Z" fill="#011576"/>
<path d="M154.097 331.877C147.748 320.756 139.606 314.249 135.856 317.252C132.132 320.248 134.217 331.706 140.571 342.879C146.924 354.052 155.14 360.711 158.878 357.649C162.616 354.587 160.445 343.003 154.097 331.877Z" fill="#011576"/>
<path d="M111.533 353.838C114.987 351.806 112.386 340.98 105.724 329.658C99.0625 318.335 90.8621 310.804 87.4082 312.836C83.9542 314.868 86.5548 325.694 93.2166 337.017C99.8784 348.339 108.079 355.87 111.533 353.838Z" fill="#011576"/>
<path d="M699.195 254.957C703.088 242.021 704.877 230.801 701.197 230.331C697.564 229.86 690.457 241.169 687.248 255.04C683.983 268.92 685.292 279.412 688.246 278.97C691.242 278.499 695.259 267.94 699.195 254.957Z" fill="#011576"/>
<path d="M678.976 233.111C681.904 219.268 681.092 209.306 675.795 211.745C667.566 219.951 662.693 230.93 662.13 242.537C660.377 256.77 663.321 265.452 667.377 262.685C673.674 253.962 677.664 243.789 678.976 233.111Z" fill="#011576"/>
<path d="M652.758 216.307C654.032 202.576 650.19 195.316 643.524 200.994C635.329 210.911 631.048 223.485 631.49 236.342C631.715 249.914 636.61 255.9 641.723 250.456C648.342 240.242 652.148 228.463 652.758 216.307Z" fill="#011576"/>
<path d="M620.911 205.42C620.04 192.74 613.076 189.197 605.462 198.082C601.465 203.518 598.587 209.693 596.995 216.25C595.404 222.807 595.13 229.614 596.19 236.278C598.631 248.382 605.544 251.11 611.588 242.852C618.408 231.604 621.658 218.553 620.911 205.42Z" fill="#011576"/>
<path d="M584.135 200.41C580.834 189.538 570.973 190.195 562.821 201.953C558.88 207.639 556.315 214.162 555.326 221.009C554.337 227.856 554.952 234.839 557.123 241.407C561.839 251.535 570.687 250.76 577.431 239.796C584.46 227.948 586.848 213.916 584.135 200.41Z" fill="#011576"/>
<path d="M543.285 200.513C537.489 191.909 525.115 196.764 516.867 210.864C512.921 216.631 510.673 223.391 510.379 230.373C510.084 237.355 511.755 244.28 515.201 250.359C522.122 258.314 532.735 254.056 539.924 240.607C543.558 234.644 545.754 227.916 546.338 220.957C546.921 213.998 545.876 206.998 543.285 200.513Z" fill="#011576"/>
<path d="M498.516 208.082C491.76 200.218 479.017 205.761 471.198 219.798C467.409 225.501 465.42 232.209 465.489 239.055C465.558 245.901 467.682 252.569 471.585 258.194C479.239 265.657 490.33 260.976 497.303 247.345C500.858 241.455 502.836 234.749 503.048 227.872C503.261 220.996 501.7 214.18 498.516 208.082Z" fill="#011576"/>
<path d="M450.934 220.184C443.914 212.141 431.899 216.245 424.923 228.713C421.544 234.244 419.918 240.669 420.261 247.141C420.604 253.614 422.898 259.831 426.843 264.974C434.58 272.807 445.415 269.591 451.675 257.318C454.863 251.621 456.476 245.177 456.346 238.65C456.215 232.123 454.348 225.749 450.934 220.184Z" fill="#011576"/>
<path d="M402.209 232.94C395.03 224.6 383.713 227.026 377.513 237.801C374.55 243.13 373.268 249.231 373.835 255.301C374.402 261.372 376.791 267.129 380.688 271.818C382.231 273.752 384.263 275.238 386.574 276.121C388.885 277.004 391.391 277.252 393.83 276.838C396.27 276.425 398.554 275.366 400.445 273.771C402.337 272.177 403.766 270.104 404.586 267.77C407.399 262.298 408.664 256.162 408.245 250.024C407.827 243.886 405.739 237.979 402.209 232.94Z" fill="#011576"/>
<path d="M353.165 245.363C352.021 243.297 350.347 241.572 348.316 240.367C346.285 239.161 343.969 238.518 341.607 238.503C339.246 238.488 336.922 239.101 334.876 240.281C332.829 241.46 331.134 243.163 329.963 245.214C327.271 250.315 326.14 256.097 326.712 261.836C327.283 267.576 329.532 273.021 333.178 277.491C340.576 286.646 350.675 287.203 355.943 278.346C358.486 273.106 359.57 267.277 359.081 261.473C358.592 255.669 356.549 250.104 353.165 245.363Z" fill="#011576"/>
<path d="M303.434 255.758C296.515 246.18 286.574 244.639 281.446 251.886C279.109 256.749 278.236 262.187 278.933 267.538C279.631 272.889 281.869 277.921 285.375 282.023C292.607 291.589 302.294 293.726 307.103 286.465C309.339 281.497 310.179 276.013 309.533 270.603C308.886 265.192 306.778 260.06 303.434 255.758Z" fill="#011576"/>
<path d="M253.603 263.725C246.794 253.746 237.412 250.559 232.788 256.29C230.769 260.929 230.109 266.047 230.885 271.047C231.661 276.046 233.841 280.723 237.171 284.532C244.162 294.533 253.405 298.179 257.83 292.426C259.791 287.708 260.434 282.545 259.689 277.49C258.945 272.435 256.841 267.677 253.603 263.725Z" fill="#011576"/>
<path d="M203.871 268.774C197.267 258.324 188.447 253.52 184.264 257.831C180.08 262.143 182.179 274.038 188.861 284.553C195.544 295.068 204.28 300.154 208.363 295.765C212.445 291.376 210.467 279.202 203.871 268.774Z" fill="#011576"/>
<path d="M154.48 270.393C148.184 259.352 139.965 252.92 136.161 255.933C132.357 258.946 134.432 270.445 140.745 281.598C147.058 292.752 155.212 299.28 158.992 296.139C162.772 292.998 160.772 281.436 154.48 270.393Z" fill="#011576"/>
<path d="M111.111 292.568C114.576 290.663 112.178 279.654 105.757 267.979C99.3349 256.304 91.3206 248.385 87.8562 250.291C84.3917 252.196 86.7891 263.205 93.2108 274.88C99.6325 286.555 107.647 294.474 111.111 292.568Z" fill="#011576"/>
<path d="M745.853 194.651C754.811 183.083 760.249 170.732 755.929 167.658C751.663 164.592 739.993 173.44 731.837 186.601C723.617 199.777 721.358 211.23 724.825 212.728C728.349 214.198 736.846 206.266 745.853 194.651Z" fill="#011576"/>
<path d="M728.86 157.714C736.208 143.654 737.708 131.44 730.894 131.921C724.119 132.394 712.802 145.894 706.838 160.642C700.844 175.431 701.401 185.539 706.795 184.409C712.212 183.225 721.476 171.816 728.86 157.714Z" fill="#011576"/>
<path d="M703.082 128.398C707.93 113.412 705.005 103.791 696.097 108.51C684.622 117.531 676.771 130.375 673.976 144.701C670.814 159.446 674.518 166.829 681.713 162.46C691.978 153.409 699.4 141.578 703.082 128.398Z" fill="#011576"/>
<path d="M669.271 108.537C671.005 94.1964 663.656 88.9956 653.249 97.9957C642.167 108.851 635.529 123.448 634.632 138.935C634.577 152.275 641.443 155.949 650.176 148.02C660.486 137.16 667.16 123.361 669.271 108.537Z" fill="#011576"/>
<path d="M628.654 98.4351C626.996 86.0378 615.627 86.1987 604.364 99.0308C599.069 104.784 595.076 111.61 592.657 119.045C590.238 126.481 589.451 134.35 590.348 142.117C593.439 153.152 603.229 152.605 613.086 141.191C623.35 129.334 628.891 114.115 628.654 98.4351Z" fill="#011576"/>
<path d="M582.69 97.1244C577.617 87.536 562.9 93.1628 551.427 109.039C546.22 114.78 542.657 121.82 541.115 129.416C539.573 137.012 540.109 144.883 542.666 152.2C548.693 160.508 561.035 155.687 571.586 141.102C576.703 135.125 580.369 128.045 582.296 120.415C584.222 112.786 584.357 104.815 582.69 97.1244Z" fill="#011576"/>
<path d="M531.448 106.78C525.109 98.4306 510.071 105.422 499.418 121.444C488.757 137.424 486.873 155.699 493.87 163.145C500.906 170.592 513.661 164.87 523.681 149.753C533.657 134.677 537.819 115.123 531.448 106.78Z" fill="#011576"/>
<path d="M477.012 123.535C470.337 115.323 456.498 121.033 447.306 135.326C442.949 140.78 440.349 147.428 439.849 154.391C439.349 161.354 440.972 168.305 444.505 174.326C451.707 181.956 463.765 177.555 472.455 163.811C476.772 158.131 479.474 151.389 480.276 144.3C481.078 137.211 479.951 130.036 477.012 123.535Z" fill="#011576"/>
<path d="M421.95 142.296C415.06 134.011 402.352 137.955 394.488 150.309C390.721 155.56 388.662 161.844 388.59 168.307C388.518 174.769 390.437 181.097 394.086 186.431C401.384 194.377 412.744 191.568 420.2 179.568C423.953 174.143 426.106 167.773 426.416 161.183C426.725 154.593 425.178 148.049 421.95 142.296Z" fill="#011576"/>
<path d="M367.333 161.236C365.828 159.187 363.815 157.567 361.492 156.534C359.17 155.502 356.618 155.093 354.089 155.349C351.56 155.604 349.141 156.516 347.072 157.992C345.003 159.469 343.355 161.459 342.291 163.768C338.978 168.823 337.26 174.758 337.36 180.801C337.46 186.845 339.374 192.719 342.853 197.662C344.203 199.714 346.073 201.37 348.273 202.463C350.472 203.555 352.922 204.045 355.372 203.882C357.823 203.719 360.186 202.909 362.221 201.535C364.257 200.16 365.891 198.27 366.958 196.058C370.24 190.858 372.012 184.849 372.079 178.7C372.145 172.552 370.502 166.505 367.333 161.236Z" fill="#011576"/>
<path d="M312.95 178.018C311.878 175.933 310.288 174.16 308.331 172.87C306.375 171.579 304.118 170.816 301.78 170.652C299.442 170.488 297.102 170.93 294.984 171.936C292.867 172.941 291.045 174.475 289.694 176.39C286.902 181.211 285.621 186.758 286.014 192.314C286.408 197.871 288.459 203.182 291.902 207.56C298.863 216.781 308.811 218.02 314.482 209.918C317.27 205 318.606 199.393 318.334 193.746C318.063 188.1 316.196 182.646 312.95 178.018Z" fill="#011576"/>
<path d="M259.409 191.735C252.707 182.044 242.829 179.686 237.717 186.075C235.397 190.68 234.485 195.866 235.094 200.986C235.703 206.107 237.807 210.934 241.143 214.866C248.003 224.532 257.399 227.469 262.342 221.094C264.681 216.424 265.647 211.187 265.128 205.99C264.609 200.793 262.626 195.85 259.409 191.735Z" fill="#011576"/>
<path d="M206.873 201.515C200.266 191.335 191.102 187.136 186.648 191.849C182.193 196.563 184.181 208.515 190.857 218.748C197.532 228.982 206.381 233.548 210.748 228.766C215.115 223.983 213.486 211.665 206.873 201.515Z" fill="#011576"/>
<path d="M155.562 206.482C149.194 195.658 140.755 189.55 136.844 192.74C132.933 195.93 135 207.397 141.375 218.386C147.749 229.376 155.997 235.594 159.899 232.237C163.801 228.88 161.928 217.302 155.562 206.482Z" fill="#011576"/>
<path d="M111.166 230.207C114.654 228.289 112.274 217.265 105.851 205.582C99.4277 193.9 91.394 185.983 87.9068 187.901C84.4197 189.818 86.7996 200.843 93.2226 212.525C99.6455 224.207 107.679 232.124 111.166 230.207Z" fill="#011576"/>
<path d="M980.08 329.109H1075.27V384.793H917.042V81.1543H980.081L980.08 329.109ZM1340.88 136.636H1228.24V205.559H1328.05V260.403H1228.24V329.115H1340.88V384.799H1164.79V81.1597H1340.88V136.636ZM1674.97 81.1543L1575.16 239.381V384.793H1511.91V240.855L1411.47 81.1543H1481.24L1543.22 184.538L1605.42 81.1543H1674.97ZM1919.36 384.793L1840.35 251.15H1822.07V384.793H1759.03V81.1543H1869.13C1937.84 81.1543 1966.84 121.709 1966.84 171.93C1966.84 212.695 1943.73 239.171 1902.54 247.996L1993.95 384.791L1919.36 384.793ZM1822.06 133.484V205.978H1859.26C1892.88 205.978 1906.54 191.69 1906.54 169.836C1906.54 148.193 1892.88 133.484 1859.26 133.484H1822.06ZM2284.77 384.793L2262.7 322.175H2135.16L2113.1 384.793H2048.59L2160.38 81.1543H2237.5L2349.29 384.793H2284.78H2284.77ZM2153.65 269.429H2244.22L2199.04 140.617L2153.65 269.429ZM2643.67 81.1543H2706.5V384.793H2633.58L2499.1 167.729V384.793H2436.27V81.1543H2508.35L2643.67 296.96L2643.67 81.1543ZM2826.48 384.793V81.1543H2936.38C3033.25 81.1543 3081.15 142.092 3081.15 232.872C3081.15 323.857 3033.25 384.793 2936.38 384.793H2826.48ZM2889.52 329.109H2933.22C2989.12 329.109 3014.75 294.228 3014.75 232.871C3014.75 171.513 2989.12 136.632 2933.22 136.632H2889.52V329.109Z" fill="#011576"/>
<path d="M1149.42 580.591H1169.44V592.305H1136.16V528.432H1149.42V580.591ZM1233.2 592.305L1228.56 579.132H1201.73L1197.08 592.305H1183.51L1207.03 528.432H1223.25L1246.77 592.305H1233.2ZM1205.61 568.038H1224.67L1215.16 540.941L1205.61 568.038ZM1277.63 592.305L1260.92 528.432H1274.72L1287.18 576.793L1301.46 528.432H1312.64L1326.83 576.793L1339.43 528.432H1353.18L1336.47 592.305H1319.41L1307.03 552.831L1294.7 592.305H1277.63ZM1381.52 608.572H1372.42L1377.94 579.663H1391.03L1381.52 608.572ZM1477.55 593.189C1458.77 593.189 1444.89 580.414 1444.89 560.346C1444.89 540.277 1458.77 527.547 1477.55 527.547C1491.79 527.547 1503.19 534.84 1507.75 546.952L1495.37 551.461C1492.54 544.035 1485.78 539.747 1477.55 539.747C1466.55 539.747 1458.1 547.438 1458.1 560.346C1458.1 573.253 1466.55 580.989 1477.55 580.989C1485.78 580.989 1492.54 576.657 1495.37 569.23L1507.75 573.739C1503.19 585.851 1491.79 593.189 1477.55 593.189ZM1557.8 593.189C1539.01 593.189 1525.13 580.37 1525.13 560.346C1525.13 540.277 1539.01 527.547 1557.8 527.547C1576.54 527.547 1590.42 540.277 1590.42 560.346C1590.42 580.37 1576.54 593.189 1557.8 593.189ZM1557.8 581.033C1568.8 581.033 1577.24 573.298 1577.24 560.346C1577.24 547.439 1568.8 539.747 1557.8 539.747C1546.79 539.747 1538.35 547.439 1538.35 560.346C1538.35 573.298 1546.79 581.033 1557.8 581.033ZM1686.7 592.305H1673.49L1669.29 544.166L1653.11 592.305H1644.53L1628.36 544.166L1624.11 592.305H1610.85L1616.2 528.432H1635.12L1648.73 568.525L1662.52 528.432H1681.44L1686.7 592.305ZM1738.04 528.432C1750.54 528.432 1758.32 537.715 1758.32 549.075C1758.32 560.701 1750.54 569.409 1738.04 569.409H1724.73V592.307H1711.47V528.434L1738.04 528.432ZM1735.82 558.313C1742.46 558.313 1745.55 554.644 1745.55 548.897C1745.55 543.372 1742.46 539.526 1735.82 539.526H1724.73V558.313H1735.82ZM1793.61 580.591H1813.63V592.305H1780.35V528.432H1793.61V580.591ZM1834.64 592.305V528.432H1847.9V592.305H1834.64ZM1918.02 592.305L1913.38 579.132H1886.55L1881.91 592.305H1868.34L1891.86 528.432H1908.08L1931.59 592.305H1918.02ZM1890.44 568.038H1909.49L1899.99 540.941L1890.44 568.038ZM1995.7 528.432H2008.92V592.305H1993.58L1965.29 546.642V592.305H1952.07V528.432H1967.23L1995.7 573.828V528.432ZM2064.62 593.189C2045.84 593.189 2031.96 580.414 2031.96 560.346C2031.96 540.277 2045.84 527.547 2064.62 527.547C2078.86 527.547 2090.26 534.84 2094.81 546.952L2082.44 551.461C2079.61 544.035 2072.84 539.747 2064.62 539.747C2053.62 539.747 2045.17 547.438 2045.17 560.346C2045.17 573.253 2053.62 580.989 2064.62 580.989C2072.84 580.989 2079.61 576.657 2082.44 569.23L2094.81 573.739C2090.26 585.851 2078.86 593.189 2064.62 593.189ZM2153.62 540.102H2129.92V554.6H2150.92V566.137H2129.92V580.592H2153.62V592.306H2116.57V528.433H2153.62V540.102ZM2269.89 592.305H2255.3L2251.11 587.045C2245.31 590.891 2238.42 593.189 2230.86 593.189C2218 593.189 2208.36 586.515 2208.36 574.403C2208.36 565.164 2214.02 560.655 2224.8 553.936L2224.27 553.273C2219.99 547.836 2218.53 544.123 2218.53 540.543C2218.53 536.299 2220.38 533.072 2223.48 530.862C2226.48 528.652 2230.73 527.502 2235.59 527.502C2246.33 527.502 2253.01 532.94 2253.01 540.764C2253.01 546.333 2249.56 550.842 2240.72 556.146L2252.26 570.424C2255.53 565.429 2257.29 559.638 2257.29 554.643H2268.79C2268.79 563.705 2265.34 572.546 2259.55 579.486L2269.89 592.305ZM2231.97 537.137C2230.99 537.977 2230.51 539.259 2230.51 540.717C2230.51 542.839 2231.52 544.607 2233.87 547.613L2234.88 548.895C2239.53 546.11 2241.74 543.281 2241.74 540.54C2241.74 537.579 2239.22 535.766 2235.99 535.766C2234.27 535.766 2232.94 536.253 2231.97 537.137ZM2231.39 582.757C2236.34 582.757 2240.76 581.166 2244.43 578.646L2230.99 561.76C2224.54 565.694 2220.12 568.435 2220.12 574.093C2220.12 579.795 2224.67 582.757 2231.39 582.757ZM2370.52 592.305L2365.88 579.132H2339.05L2334.41 592.305H2320.84L2344.36 528.432H2360.58L2384.1 592.305H2370.52ZM2342.94 568.038H2361.99L2352.49 540.941L2342.94 568.038ZM2404.57 592.305V528.432H2427.69C2448.07 528.432 2458.15 541.251 2458.15 560.348C2458.15 579.488 2448.07 592.307 2427.69 592.307L2404.57 592.305ZM2417.83 580.591H2427.03C2438.78 580.591 2444.18 573.253 2444.18 560.346C2444.18 547.438 2438.78 540.1 2427.03 540.1H2417.83V580.591ZM2522.08 528.432H2536.18L2512.57 592.305H2497.98L2474.51 528.432H2488.57L2505.32 576.834L2522.08 528.432ZM2556.65 592.305V528.432H2569.91V592.305H2556.65ZM2618.51 593.189C2604.8 593.189 2594.1 586.603 2592.16 574.624L2605.86 571.485C2606.75 578.646 2612.01 582.359 2619.04 582.359C2624.43 582.359 2628.72 579.972 2628.67 574.579C2628.63 568.567 2621.56 566.667 2613.78 564.279C2604.4 561.362 2594.37 557.914 2594.37 546.156C2594.37 534.265 2604.09 527.546 2616.91 527.546C2628.14 527.546 2639.46 532.1 2642.02 544.344L2629.2 547.526C2628.01 541.161 2623.72 538.376 2617.71 538.376C2612.36 538.376 2607.81 540.586 2607.81 545.847C2607.81 550.753 2614.09 552.389 2621.33 554.555C2630.97 557.472 2642.38 561.185 2642.38 573.916C2642.38 587.486 2631.01 593.189 2618.51 593.189ZM2693.8 593.189C2675.01 593.189 2661.13 580.37 2661.13 560.346C2661.13 540.277 2675.01 527.547 2693.8 527.547C2712.54 527.547 2726.42 540.277 2726.42 560.346C2726.42 580.37 2712.54 593.189 2693.8 593.189ZM2693.8 581.033C2704.8 581.033 2713.24 573.298 2713.24 560.346C2713.24 547.439 2704.8 539.747 2693.8 539.747C2682.79 539.747 2674.35 547.439 2674.35 560.346C2674.35 573.298 2682.79 581.033 2693.8 581.033ZM2783.23 592.305L2766.61 564.192H2762.76V592.305H2749.5V528.432H2772.66C2787.12 528.432 2793.22 536.964 2793.22 547.529C2793.22 556.104 2788.36 561.674 2779.69 563.531L2798.92 592.307L2783.23 592.305ZM2762.76 539.436V554.686H2770.59C2777.66 554.686 2780.53 551.681 2780.53 547.083C2780.53 542.53 2777.66 539.436 2770.59 539.436L2762.76 539.436ZM2867.45 528.432L2846.45 561.718V592.307H2833.15V562.027L2812.02 528.432H2826.69L2839.73 550.18L2852.82 528.432L2867.45 528.432Z" fill="#011576"/>
</svg>
